G04 DipTrace 2.4.0.2*
%INBottom.gbr*%
%MOMM*%
%ADD13C,0.305*%
%ADD14C,0.66*%
%ADD15C,0.635*%
%ADD16R,1.5X5.0*%
%ADD17R,1.7X1.7*%
%ADD18C,1.7*%
%ADD19C,1.143*%
%FSLAX53Y53*%
G04*
G71*
G90*
G75*
G01*
%LNBottom*%
%LPD*%
X37256Y12539D2*
D13*
X37305Y12588D1*
D14*
Y17461D1*
X38575Y18731D1*
Y29209D1*
X36352Y31431D1*
X31273D1*
X30955Y31114D1*
X26192D1*
X25240Y32066D1*
Y33336D1*
X26193Y34289D1*
Y34606D1*
X39796Y12539D2*
D13*
X39845D1*
D14*
Y16826D1*
X40163Y17144D1*
Y29460D1*
X36921Y32701D1*
X27145D1*
X23653Y34606D2*
X23970D1*
X23653Y34289D1*
Y32384D1*
X22065Y30796D1*
X13453D1*
X11856Y29198D1*
Y12539D1*
X32542Y29844D2*
X36035D1*
X36988Y28891D1*
Y19684D1*
X34762Y17458D1*
Y12585D1*
D13*
X34716Y12539D1*
X23653Y23811D2*
D14*
Y21589D1*
X22016Y19952D1*
Y12539D1*
X27096D2*
D13*
X27141Y12584D1*
D14*
Y15719D1*
X24446Y18414D1*
X23653D1*
X17302D2*
Y20954D1*
X18573Y22224D1*
Y23811D1*
X21113D2*
Y21906D1*
X19476Y20269D1*
Y12539D1*
X26193Y26351D2*
X34130D1*
X34765Y25716D1*
Y24605D1*
X31273Y34606D2*
D13*
D3*
D14*
X34765D1*
Y28098D2*
Y26986D1*
X34130Y26351D1*
D19*
X27145Y32701D3*
X32542Y29844D3*
X23653Y18414D3*
X17302D3*
X34765Y34606D3*
Y28098D3*
X14286Y20001D3*
X29367Y16826D3*
X26192Y20001D3*
X31907Y16826D3*
X14281Y16984D3*
X29367Y23811D3*
X42703Y18096D3*
Y22859D3*
Y27939D3*
Y32384D3*
Y36194D3*
X39051Y38575D3*
X34606D3*
X33654Y20001D3*
X32384Y23811D3*
X16032Y28891D3*
X19843D3*
X23653D3*
X26986D3*
X12381Y37305D3*
Y34448D3*
X10508Y39721D2*
D15*
X43624D1*
X10508Y39090D2*
X43624D1*
X10508Y38458D2*
X43624D1*
X10508Y37826D2*
X43624D1*
X10508Y37195D2*
X43624D1*
X10508Y36563D2*
X43624D1*
X10508Y35931D2*
X14752D1*
X32559D2*
X33950D1*
X35586D2*
X43624D1*
X10508Y35300D2*
X14305D1*
X36181D2*
X43624D1*
X10508Y34668D2*
X14166D1*
X36350D2*
X43624D1*
X10508Y34036D2*
X14255D1*
X36240D2*
X43624D1*
X10508Y33405D2*
X14623D1*
X38096D2*
X43624D1*
X10508Y32773D2*
X22163D1*
X38731D2*
X43624D1*
X10508Y32141D2*
X21528D1*
X39356D2*
X43624D1*
X10508Y31510D2*
X12291D1*
X39991D2*
X43624D1*
X10508Y30878D2*
X11656D1*
X24027D2*
X24554D1*
X40626D2*
X43624D1*
X10508Y30246D2*
X11031D1*
X23392D2*
X25179D1*
X41241D2*
X43624D1*
X22628Y29615D2*
X30974D1*
X41499D2*
X43624D1*
X13519Y28983D2*
X31222D1*
X41509D2*
X43624D1*
X13202Y28351D2*
X32174D1*
X32917D2*
X33206D1*
X41509D2*
X43624D1*
X13202Y27720D2*
X17331D1*
X19810D2*
X24326D1*
X28055D2*
X33226D1*
X41509D2*
X43624D1*
X13202Y27088D2*
X16865D1*
X20286D2*
X24326D1*
X41509D2*
X43624D1*
X13202Y26456D2*
X16706D1*
X20435D2*
X24326D1*
X41509D2*
X43624D1*
X13202Y25825D2*
X16786D1*
X20355D2*
X24326D1*
X41509D2*
X43624D1*
X13202Y25193D2*
X14811D1*
X41509D2*
X43624D1*
X13202Y24561D2*
X14335D1*
X28055D2*
X32998D1*
X41509D2*
X43624D1*
X13202Y23930D2*
X14166D1*
X28055D2*
X33137D1*
X41509D2*
X43624D1*
X13202Y23298D2*
X14246D1*
X27985D2*
X32998D1*
X41509D2*
X43624D1*
X13202Y22666D2*
X14573D1*
X27648D2*
X32998D1*
X41509D2*
X43624D1*
X13202Y22035D2*
X15664D1*
X24999D2*
X25824D1*
X26557D2*
X32998D1*
X41509D2*
X43624D1*
X13202Y21403D2*
X16041D1*
X24989D2*
X32998D1*
X41509D2*
X43624D1*
X13202Y20771D2*
X15952D1*
X24701D2*
X32998D1*
X41509D2*
X43624D1*
X13202Y20140D2*
X15952D1*
X24076D2*
X35568D1*
X41509D2*
X43624D1*
X13202Y19508D2*
X15952D1*
X25177D2*
X34933D1*
X41509D2*
X43624D1*
X13202Y18876D2*
X15783D1*
X25862D2*
X34298D1*
X41509D2*
X43624D1*
X13202Y18245D2*
X15724D1*
X26497D2*
X33683D1*
X41509D2*
X43624D1*
X13202Y17613D2*
X15942D1*
X27122D2*
X33425D1*
X41509D2*
X43624D1*
X13202Y16981D2*
X16716D1*
X17885D2*
X18135D1*
X27757D2*
X33415D1*
X41499D2*
X43624D1*
X13202Y16350D2*
X18125D1*
X23362D2*
X24634D1*
X28323D2*
X33415D1*
X41231D2*
X43624D1*
X31399Y15718D2*
X32948D1*
X31399Y15086D2*
X32948D1*
X31399Y14455D2*
X32948D1*
X31399Y13823D2*
X32948D1*
X31399Y13191D2*
X32948D1*
X31399Y12560D2*
X32948D1*
X31399Y11928D2*
X32948D1*
X31399Y11296D2*
X32948D1*
X31399Y10665D2*
X32948D1*
X41119Y15992D2*
X43679D1*
X43687Y18064D1*
Y40353D1*
X10444D1*
Y15995D1*
X10579Y15992D1*
X10573Y17936D1*
Y29198D1*
X10612Y29513D1*
X10727Y29808D1*
X10948Y30106D1*
X12546Y31704D1*
X12796Y31898D1*
X13086Y32026D1*
X13453Y32079D1*
X21540D1*
X22371Y32917D1*
X22369Y33307D1*
X21999Y33036D1*
X21710Y32905D1*
X21403Y32827D1*
X21087Y32804D1*
X20772Y32836D1*
X20467Y32923D1*
X20182Y33062D1*
X19850Y33328D1*
X19459Y33036D1*
X19170Y32905D1*
X18863Y32827D1*
X18547Y32804D1*
X18232Y32836D1*
X17927Y32923D1*
X17642Y33062D1*
X17310Y33328D1*
X16919Y33036D1*
X16630Y32905D1*
X16323Y32827D1*
X16007Y32804D1*
X15692Y32836D1*
X15387Y32923D1*
X15102Y33062D1*
X14846Y33249D1*
X14626Y33478D1*
X14450Y33742D1*
X14323Y34032D1*
X14249Y34341D1*
X14230Y34657D1*
X14267Y34972D1*
X14359Y35276D1*
X14502Y35559D1*
X14692Y35812D1*
X14924Y36028D1*
X15191Y36201D1*
X15483Y36323D1*
X15792Y36393D1*
X16109Y36408D1*
X16423Y36366D1*
X16726Y36271D1*
X17007Y36123D1*
X17304Y35878D1*
X17464Y36028D1*
X17731Y36201D1*
X18023Y36323D1*
X18332Y36393D1*
X18649Y36408D1*
X18963Y36366D1*
X19266Y36271D1*
X19547Y36123D1*
X19844Y35878D1*
X20004Y36028D1*
X20271Y36201D1*
X20563Y36323D1*
X20872Y36393D1*
X21189Y36408D1*
X21503Y36366D1*
X21806Y36271D1*
X22087Y36123D1*
X22384Y35878D1*
X22544Y36028D1*
X22811Y36201D1*
X23103Y36323D1*
X23412Y36393D1*
X23729Y36408D1*
X24043Y36366D1*
X24346Y36271D1*
X24627Y36123D1*
X24924Y35878D1*
X25084Y36028D1*
X25351Y36201D1*
X25643Y36323D1*
X25952Y36393D1*
X26269Y36408D1*
X26583Y36366D1*
X26886Y36271D1*
X27167Y36123D1*
X27464Y35878D1*
X27624Y36028D1*
X27891Y36201D1*
X28183Y36323D1*
X28492Y36393D1*
X28809Y36408D1*
X29123Y36366D1*
X29426Y36271D1*
X29707Y36123D1*
X30004Y35878D1*
X30164Y36028D1*
X30431Y36201D1*
X30723Y36323D1*
X31032Y36393D1*
X31349Y36408D1*
X31663Y36366D1*
X31966Y36271D1*
X32247Y36123D1*
X32543Y35889D1*
X33941D1*
X34259Y36044D1*
X34567Y36118D1*
X34884Y36126D1*
X35195Y36069D1*
X35489Y35948D1*
X35750Y35769D1*
X35970Y35540D1*
X36137Y35271D1*
X36245Y34973D1*
X36289Y34606D1*
X36256Y34291D1*
X36154Y33981D1*
X36921Y33984D1*
X37235Y33945D1*
X37531Y33830D1*
X37828Y33609D1*
X41070Y30367D1*
X41264Y30117D1*
X41392Y29827D1*
X41446Y29460D1*
Y17144D1*
X41407Y16829D1*
X41322Y16593D1*
X41160Y16337D1*
X41128Y16191D1*
Y15983D1*
X41499Y15982D1*
X33330Y15992D2*
X33479D1*
Y17458D1*
X33518Y17772D1*
X33632Y18067D1*
X33854Y18365D1*
X35700Y20210D1*
X35704Y20368D1*
X33062Y20362D1*
Y23768D1*
X33290D1*
X33162Y24029D1*
X33083Y24336D1*
X33063Y24653D1*
X33134Y25071D1*
X27988Y25068D1*
X27995Y24548D1*
X27847D1*
X27983Y24026D1*
X27995Y23811D1*
X27968Y23495D1*
X27885Y23189D1*
X27750Y22902D1*
X27566Y22644D1*
X27340Y22421D1*
X27079Y22241D1*
X26790Y22110D1*
X26483Y22032D1*
X26167Y22009D1*
X25852Y22041D1*
X25547Y22128D1*
X25262Y22267D1*
X24930Y22533D1*
X24936Y21589D1*
X24897Y21274D1*
X24782Y20979D1*
X24560Y20681D1*
X23809Y19931D1*
X24083Y19876D1*
X24376Y19755D1*
X24466Y19694D1*
X24598Y19688D1*
X24905Y19612D1*
X25185Y19463D1*
X25578Y19097D1*
X28048Y16626D1*
X28243Y16377D1*
X28372Y16077D1*
X28315Y16233D1*
X28568Y15992D1*
X28799Y15982D1*
X29838Y15992D1*
X31339D1*
Y10446D1*
X33017Y10444D1*
X33013Y15992D1*
X33330D1*
X23299D2*
X25046D1*
X24094Y16952D1*
X23824Y16899D1*
X23507Y16896D1*
X23303Y16938D1*
X23299Y15993D1*
X23719Y15982D1*
X18090Y15992D2*
X18199D1*
X18193Y17172D1*
X17784Y16967D1*
X17474Y16899D1*
X17157Y16896D1*
X16847Y16959D1*
X16556Y17085D1*
X16297Y17268D1*
X16082Y17501D1*
X15919Y17773D1*
X15817Y18073D1*
X15778Y18387D1*
X15806Y18703D1*
X15898Y19006D1*
X16017Y19223D1*
X16019Y20954D1*
X16058Y21268D1*
X16173Y21563D1*
X16395Y21861D1*
X16630Y22110D1*
X16323Y22032D1*
X16007Y22009D1*
X15692Y22041D1*
X15387Y22128D1*
X15102Y22267D1*
X14846Y22454D1*
X14626Y22683D1*
X14450Y22947D1*
X14323Y23237D1*
X14249Y23546D1*
X14230Y23862D1*
X14267Y24177D1*
X14359Y24481D1*
X14502Y24764D1*
X14692Y25017D1*
X14924Y25233D1*
X15191Y25406D1*
X15483Y25528D1*
X15792Y25598D1*
X16109Y25613D1*
X16423Y25571D1*
X16726Y25476D1*
X17007Y25328D1*
X17218Y25165D1*
X16990Y25487D1*
X16863Y25777D1*
X16789Y26086D1*
X16770Y26402D1*
X16807Y26717D1*
X16899Y27021D1*
X17042Y27304D1*
X17232Y27557D1*
X17464Y27773D1*
X17731Y27946D1*
X18023Y28068D1*
X18332Y28138D1*
X18649Y28153D1*
X18963Y28111D1*
X19266Y28016D1*
X19547Y27868D1*
X19797Y27674D1*
X20010Y27439D1*
X20179Y27171D1*
X20297Y26876D1*
X20363Y26566D1*
X20375Y26351D1*
X20348Y26035D1*
X20265Y25729D1*
X20130Y25442D1*
X19952Y25192D1*
X20271Y25406D1*
X20563Y25528D1*
X20872Y25598D1*
X21189Y25613D1*
X21503Y25571D1*
X21806Y25476D1*
X22087Y25328D1*
X22384Y25083D1*
X22544Y25233D1*
X22811Y25406D1*
X23103Y25528D1*
X23412Y25598D1*
X23729Y25613D1*
X24043Y25571D1*
X24390Y25453D1*
Y28154D1*
X27995D1*
Y27628D1*
X31590Y27634D1*
X33306D1*
X33241Y28071D1*
X33268Y28387D1*
X33311Y28529D1*
X33024Y28397D1*
X32714Y28329D1*
X32397Y28326D1*
X32087Y28389D1*
X31796Y28515D1*
X31537Y28698D1*
X31322Y28931D1*
X31159Y29203D1*
X31057Y29503D1*
X31019Y29827D1*
X26192Y29831D1*
X25878Y29870D1*
X25583Y29985D1*
X25285Y30206D1*
X24327Y31167D1*
X24111Y31027D1*
X22972Y29889D1*
X22722Y29694D1*
X22433Y29567D1*
X22065Y29513D1*
X13979D1*
X13133Y28661D1*
X13139Y24753D1*
Y15992D1*
X13559Y15982D1*
X14598Y15992D1*
X16099Y15982D1*
X17138Y15992D1*
X18090D1*
D16*
X42336Y12539D3*
X39796D3*
X37256D3*
X34716D3*
X32176D3*
X29636D3*
X27096D3*
X24556D3*
X22016D3*
X19476D3*
X16936D3*
X14396D3*
X11856D3*
D17*
X31273Y37146D3*
D18*
Y34606D3*
X28733Y37146D3*
Y34606D3*
X26193Y37146D3*
Y34606D3*
X23653Y37146D3*
Y34606D3*
X21113Y37146D3*
Y34606D3*
X18573Y37146D3*
Y34606D3*
X16033Y37146D3*
Y34606D3*
D17*
X26193Y26351D3*
D18*
Y23811D3*
X23653Y26351D3*
Y23811D3*
X21113Y26351D3*
Y23811D3*
X18573Y26351D3*
Y23811D3*
X16032Y26351D3*
Y23811D3*
D17*
X34765Y22065D3*
D18*
Y24605D3*
M02*
