G04 DipTrace 2.4.0.2*
%INTop.gbr*%
%MOMM*%
%ADD13C,0.305*%
%ADD14C,0.66*%
%ADD15C,0.635*%
%ADD16R,1.5X5.0*%
%ADD17R,1.7X1.7*%
%ADD18C,1.7*%
%ADD19C,1.143*%
%FSLAX53Y53*%
G04*
G71*
G90*
G75*
G01*
%LNTop*%
%LPD*%
X14396Y12539D2*
D13*
X14444D1*
X16936D1*
X19476D1*
X27096D2*
X29636D1*
X24556D2*
X27096D1*
X22016D2*
X24556D1*
X19476D2*
X22016D1*
X16936D2*
D3*
X29636D2*
Y12640D1*
X29736Y12539D1*
X32176D1*
X11856D2*
Y12638D1*
X11955Y12539D1*
X14396D1*
X14444D2*
D14*
X14281Y12702D1*
Y16984D1*
X27145Y32701D2*
X22065D1*
X21113Y33654D1*
Y34606D1*
X28733D2*
Y31431D1*
X30320Y29844D1*
X32542D1*
X34765Y22065D2*
Y21271D1*
X39796Y16241D1*
Y12539D1*
X23653Y18414D2*
X17302D1*
X34716Y12539D2*
Y16558D1*
X31272Y20001D1*
X28732D1*
X26193Y22541D1*
Y23811D1*
X34765Y34606D2*
Y28098D1*
D19*
X27145Y32701D3*
X32542Y29844D3*
X23653Y18414D3*
X17302D3*
X34765Y34606D3*
Y28098D3*
X14286Y20001D3*
X29367Y16826D3*
X26192Y20001D3*
X31907Y16826D3*
X14281Y16984D3*
X29367Y23811D3*
X42703Y18096D3*
Y22859D3*
Y27939D3*
Y32384D3*
Y36194D3*
X39051Y38575D3*
X34606D3*
X33654Y20001D3*
X32384Y23811D3*
X16032Y28891D3*
X19843D3*
X23653D3*
X26986D3*
X12381Y37305D3*
Y34448D3*
X10508Y39721D2*
D15*
X43624D1*
X10508Y39090D2*
X43624D1*
X10508Y38458D2*
X43624D1*
X10508Y37826D2*
X43624D1*
X10508Y37195D2*
X43624D1*
X10508Y36563D2*
X43624D1*
X10508Y35931D2*
X14752D1*
X32559D2*
X33950D1*
X35586D2*
X43624D1*
X10508Y35300D2*
X14305D1*
X32996D2*
X33345D1*
X36181D2*
X43624D1*
X10508Y34668D2*
X14166D1*
X36350D2*
X43624D1*
X10508Y34036D2*
X14255D1*
X33046D2*
X33286D1*
X36240D2*
X43624D1*
X10508Y33405D2*
X14623D1*
X32678D2*
X33415D1*
X36111D2*
X43624D1*
X10508Y32773D2*
X20119D1*
X30079D2*
X33415D1*
X36111D2*
X43624D1*
X10508Y32141D2*
X20744D1*
X30079D2*
X33415D1*
X36111D2*
X43624D1*
X10508Y31510D2*
X21528D1*
X30535D2*
X33415D1*
X36111D2*
X43624D1*
X10508Y30878D2*
X27511D1*
X36111D2*
X43624D1*
X10508Y30246D2*
X28037D1*
X36111D2*
X43624D1*
X10508Y29615D2*
X28672D1*
X36111D2*
X43624D1*
X10508Y28983D2*
X29307D1*
X36111D2*
X43624D1*
X10508Y28351D2*
X32174D1*
X32917D2*
X33206D1*
X36330D2*
X43624D1*
X10508Y27720D2*
X17331D1*
X19810D2*
X24326D1*
X28055D2*
X33226D1*
X36310D2*
X43624D1*
X10508Y27088D2*
X16865D1*
X20286D2*
X24326D1*
X28055D2*
X33563D1*
X35972D2*
X43624D1*
X10508Y26456D2*
X16706D1*
X20435D2*
X24326D1*
X28055D2*
X43624D1*
X10508Y25825D2*
X16786D1*
X20355D2*
X24326D1*
X28055D2*
X33514D1*
X36012D2*
X43624D1*
X10508Y25193D2*
X14811D1*
X28055D2*
X33107D1*
X36429D2*
X43624D1*
X10508Y24561D2*
X14335D1*
X28055D2*
X32998D1*
X36528D2*
X43624D1*
X10508Y23930D2*
X14166D1*
X28055D2*
X33137D1*
X36389D2*
X43624D1*
X10508Y23298D2*
X14246D1*
X27985D2*
X32998D1*
X36528D2*
X43624D1*
X10508Y22666D2*
X14573D1*
X27946D2*
X32998D1*
X36528D2*
X43624D1*
X10508Y22035D2*
X15664D1*
X16397D2*
X18204D1*
X18937D2*
X20744D1*
X21477D2*
X23284D1*
X24017D2*
X24951D1*
X28581D2*
X32998D1*
X36528D2*
X43624D1*
X10508Y21403D2*
X25457D1*
X29206D2*
X32998D1*
X36528D2*
X43624D1*
X10508Y20771D2*
X26082D1*
X32381D2*
X32998D1*
X37143D2*
X43624D1*
X10508Y20140D2*
X26717D1*
X33016D2*
X34020D1*
X37778D2*
X43624D1*
X10508Y19508D2*
X16180D1*
X24781D2*
X27352D1*
X33641D2*
X34655D1*
X38403D2*
X43624D1*
X10508Y18876D2*
X15783D1*
X25168D2*
X28057D1*
X34276D2*
X35280D1*
X39038D2*
X43624D1*
X10508Y18245D2*
X15724D1*
X25227D2*
X31152D1*
X34911D2*
X35915D1*
X39673D2*
X43624D1*
X10508Y17613D2*
X15942D1*
X25009D2*
X31787D1*
X35536D2*
X36550D1*
X40298D2*
X43624D1*
X10508Y16981D2*
X16716D1*
X17885D2*
X23066D1*
X24235D2*
X32413D1*
X35992D2*
X37175D1*
X40904D2*
X43624D1*
X10508Y16350D2*
X33048D1*
X36062D2*
X37810D1*
X41142D2*
X43624D1*
X10508Y15718D2*
X32948D1*
X10508Y15086D2*
X32948D1*
X10508Y14455D2*
X32948D1*
X10508Y13823D2*
X32948D1*
X10508Y13191D2*
X32948D1*
X10508Y12560D2*
X32948D1*
X10508Y11928D2*
X32948D1*
X10508Y11296D2*
X32948D1*
X10508Y10665D2*
X32948D1*
X41079Y15992D2*
X43679D1*
X43687Y18064D1*
Y40353D1*
X10444D1*
Y10444D1*
X33017D1*
X33013Y15992D1*
X33439D1*
X33135Y16324D1*
X30742Y18717D1*
X28732Y18718D1*
X28418Y18757D1*
X28123Y18872D1*
X27825Y19094D1*
X25285Y21634D1*
X25091Y21884D1*
X24963Y22174D1*
X24911Y22496D1*
X24539Y22241D1*
X24250Y22110D1*
X23943Y22032D1*
X23627Y22009D1*
X23312Y22041D1*
X23007Y22128D1*
X22722Y22267D1*
X22390Y22533D1*
X21999Y22241D1*
X21710Y22110D1*
X21403Y22032D1*
X21087Y22009D1*
X20772Y22041D1*
X20467Y22128D1*
X20182Y22267D1*
X19850Y22533D1*
X19459Y22241D1*
X19170Y22110D1*
X18863Y22032D1*
X18547Y22009D1*
X18232Y22041D1*
X17927Y22128D1*
X17642Y22267D1*
X17310Y22533D1*
X16919Y22241D1*
X16630Y22110D1*
X16323Y22032D1*
X16007Y22009D1*
X15692Y22041D1*
X15387Y22128D1*
X15102Y22267D1*
X14846Y22454D1*
X14626Y22683D1*
X14450Y22947D1*
X14323Y23237D1*
X14249Y23546D1*
X14230Y23862D1*
X14267Y24177D1*
X14359Y24481D1*
X14502Y24764D1*
X14692Y25017D1*
X14924Y25233D1*
X15191Y25406D1*
X15483Y25528D1*
X15792Y25598D1*
X16109Y25613D1*
X16423Y25571D1*
X16726Y25476D1*
X17007Y25328D1*
X17218Y25165D1*
X16990Y25487D1*
X16863Y25777D1*
X16789Y26086D1*
X16770Y26402D1*
X16807Y26717D1*
X16899Y27021D1*
X17042Y27304D1*
X17232Y27557D1*
X17464Y27773D1*
X17731Y27946D1*
X18023Y28068D1*
X18332Y28138D1*
X18649Y28153D1*
X18963Y28111D1*
X19266Y28016D1*
X19547Y27868D1*
X19797Y27674D1*
X20010Y27439D1*
X20179Y27171D1*
X20297Y26876D1*
X20363Y26566D1*
X20375Y26351D1*
X20348Y26035D1*
X20265Y25729D1*
X20130Y25442D1*
X19952Y25192D1*
X20271Y25406D1*
X20563Y25528D1*
X20872Y25598D1*
X21189Y25613D1*
X21503Y25571D1*
X21806Y25476D1*
X22087Y25328D1*
X22384Y25083D1*
X22544Y25233D1*
X22811Y25406D1*
X23103Y25528D1*
X23412Y25598D1*
X23729Y25613D1*
X24043Y25571D1*
X24390Y25453D1*
Y28154D1*
X27995D1*
Y24548D1*
X27847D1*
X27983Y24026D1*
X27995Y23811D1*
X27968Y23495D1*
X27885Y23189D1*
X27709Y22846D1*
X29268Y21281D1*
X31272Y21284D1*
X31587Y21245D1*
X31882Y21130D1*
X32180Y20909D1*
X35623Y17465D1*
X35818Y17216D1*
X35945Y16926D1*
X35999Y16558D1*
Y15993D1*
X36419Y15982D1*
X37458Y15992D1*
X38215Y16007D1*
X33861Y20361D1*
X33062Y20362D1*
Y23768D1*
X33290D1*
X33162Y24029D1*
X33083Y24336D1*
X33063Y24653D1*
X33101Y24967D1*
X33197Y25270D1*
X33347Y25549D1*
X33547Y25795D1*
X33789Y26000D1*
X34064Y26157D1*
X34364Y26260D1*
X34678Y26306D1*
X34995Y26292D1*
X35303Y26221D1*
X35594Y26093D1*
X35855Y25913D1*
X36079Y25689D1*
X36257Y25426D1*
X36383Y25136D1*
X36453Y24827D1*
X36468Y24605D1*
X36438Y24289D1*
X36351Y23985D1*
X36240Y23763D1*
X36468Y23768D1*
Y21377D1*
X40703Y17148D1*
X40898Y16898D1*
X41025Y16608D1*
X41079Y16241D1*
Y15993D1*
X41499Y15982D1*
X33048Y34290D2*
X32965Y33984D1*
X32830Y33697D1*
X32646Y33439D1*
X32420Y33216D1*
X32159Y33036D1*
X31870Y32905D1*
X31563Y32827D1*
X31247Y32804D1*
X30932Y32836D1*
X30627Y32923D1*
X30342Y33062D1*
X30010Y33328D1*
X30016Y31957D1*
X30854Y31125D1*
X31719Y31127D1*
X32036Y31282D1*
X32344Y31355D1*
X32661Y31364D1*
X32973Y31306D1*
X33266Y31185D1*
X33487Y31035D1*
X33482Y33783D1*
X33382Y33965D1*
X33279Y34265D1*
X33241Y34580D1*
X33268Y34895D1*
X33360Y35199D1*
X33513Y35476D1*
X33720Y35716D1*
X33972Y35908D1*
X34259Y36044D1*
X34567Y36118D1*
X34884Y36126D1*
X35195Y36069D1*
X35489Y35948D1*
X35750Y35769D1*
X35970Y35540D1*
X36137Y35271D1*
X36245Y34973D1*
X36289Y34606D1*
X36256Y34291D1*
X36159Y33989D1*
X36046Y33792D1*
X36048Y28921D1*
X36137Y28762D1*
X36245Y28464D1*
X36289Y28098D1*
X36256Y27782D1*
X36159Y27481D1*
X36001Y27206D1*
X35790Y26969D1*
X35535Y26782D1*
X35246Y26651D1*
X34937Y26583D1*
X34620Y26580D1*
X34309Y26643D1*
X34018Y26769D1*
X33760Y26952D1*
X33544Y27184D1*
X33382Y27457D1*
X33279Y27756D1*
X33241Y28071D1*
X33268Y28387D1*
X33311Y28529D1*
X33024Y28397D1*
X32714Y28329D1*
X32397Y28326D1*
X32087Y28389D1*
X31723Y28566D1*
X30320Y28561D1*
X30006Y28600D1*
X29711Y28715D1*
X29413Y28936D1*
X27825Y30524D1*
X27631Y30774D1*
X27502Y31074D1*
X27468Y31218D1*
X27317Y31187D1*
X27000Y31184D1*
X26689Y31247D1*
X26325Y31424D1*
X22065Y31418D1*
X21751Y31457D1*
X21456Y31572D1*
X21158Y31794D1*
X20205Y32746D1*
X20011Y32996D1*
X19882Y33296D1*
X19938Y33140D1*
X19720Y33216D1*
X19459Y33036D1*
X19170Y32905D1*
X18863Y32827D1*
X18547Y32804D1*
X18232Y32836D1*
X17927Y32923D1*
X17642Y33062D1*
X17310Y33328D1*
X16919Y33036D1*
X16630Y32905D1*
X16323Y32827D1*
X16007Y32804D1*
X15692Y32836D1*
X15387Y32923D1*
X15102Y33062D1*
X14846Y33249D1*
X14626Y33478D1*
X14450Y33742D1*
X14323Y34032D1*
X14249Y34341D1*
X14230Y34657D1*
X14267Y34972D1*
X14359Y35276D1*
X14502Y35559D1*
X14692Y35812D1*
X14924Y36028D1*
X15191Y36201D1*
X15483Y36323D1*
X15792Y36393D1*
X16109Y36408D1*
X16423Y36366D1*
X16726Y36271D1*
X17007Y36123D1*
X17304Y35878D1*
X17464Y36028D1*
X17731Y36201D1*
X18023Y36323D1*
X18332Y36393D1*
X18649Y36408D1*
X18963Y36366D1*
X19266Y36271D1*
X19547Y36123D1*
X19844Y35878D1*
X20004Y36028D1*
X20271Y36201D1*
X20563Y36323D1*
X20872Y36393D1*
X21189Y36408D1*
X21503Y36366D1*
X21806Y36271D1*
X22087Y36123D1*
X22384Y35878D1*
X22544Y36028D1*
X22811Y36201D1*
X23103Y36323D1*
X23412Y36393D1*
X23729Y36408D1*
X24043Y36366D1*
X24346Y36271D1*
X24627Y36123D1*
X24924Y35878D1*
X25084Y36028D1*
X25351Y36201D1*
X25643Y36323D1*
X25952Y36393D1*
X26269Y36408D1*
X26583Y36366D1*
X26886Y36271D1*
X27167Y36123D1*
X27464Y35878D1*
X27624Y36028D1*
X27891Y36201D1*
X28183Y36323D1*
X28492Y36393D1*
X28809Y36408D1*
X29123Y36366D1*
X29426Y36271D1*
X29707Y36123D1*
X30004Y35878D1*
X30164Y36028D1*
X30431Y36201D1*
X30723Y36323D1*
X31032Y36393D1*
X31349Y36408D1*
X31663Y36366D1*
X31966Y36271D1*
X32247Y36123D1*
X32497Y35929D1*
X32710Y35694D1*
X32879Y35426D1*
X32997Y35131D1*
X33063Y34821D1*
X33075Y34606D1*
X33048Y34290D1*
X22829Y17131D2*
X18126D1*
X17784Y16967D1*
X17474Y16899D1*
X17157Y16896D1*
X16847Y16959D1*
X16556Y17085D1*
X16297Y17268D1*
X16082Y17501D1*
X15919Y17773D1*
X15817Y18073D1*
X15778Y18387D1*
X15806Y18703D1*
X15898Y19006D1*
X16051Y19284D1*
X16258Y19524D1*
X16510Y19716D1*
X16796Y19852D1*
X17104Y19925D1*
X17421Y19934D1*
X17733Y19876D1*
X18026Y19755D1*
X18116Y19694D1*
X22829Y19697D1*
X23146Y19852D1*
X23454Y19925D1*
X23771Y19934D1*
X24083Y19876D1*
X24376Y19755D1*
X24638Y19577D1*
X24857Y19348D1*
X25024Y19079D1*
X25132Y18781D1*
X25177Y18414D1*
X25144Y18099D1*
X25047Y17797D1*
X24889Y17522D1*
X24678Y17286D1*
X24422Y17098D1*
X24134Y16967D1*
X23824Y16899D1*
X23507Y16896D1*
X23197Y16959D1*
X22833Y17136D1*
D16*
X42336Y12539D3*
X39796D3*
X37256D3*
X34716D3*
X32176D3*
X29636D3*
X27096D3*
X24556D3*
X22016D3*
X19476D3*
X16936D3*
X14396D3*
X11856D3*
D17*
X31273Y37146D3*
D18*
Y34606D3*
X28733Y37146D3*
Y34606D3*
X26193Y37146D3*
Y34606D3*
X23653Y37146D3*
Y34606D3*
X21113Y37146D3*
Y34606D3*
X18573Y37146D3*
Y34606D3*
X16033Y37146D3*
Y34606D3*
D17*
X26193Y26351D3*
D18*
Y23811D3*
X23653Y26351D3*
Y23811D3*
X21113Y26351D3*
Y23811D3*
X18573Y26351D3*
Y23811D3*
X16032Y26351D3*
Y23811D3*
D17*
X34765Y22065D3*
D18*
Y24605D3*
M02*
