M48
METRIC,0000.00
T01C0.5
T02C1.0
%
T01
X+001429Y+002000
X+001428Y+001698
X+001730Y+001841
X+002365Y+001841
X+002619Y+002000
X+002937Y+001683
X+003191Y+001683
X+003365Y+002000
X+003238Y+002381
X+002937Y+002381
X+002699Y+002889
X+002365Y+002889
X+001984Y+002889
X+001603Y+002889
X+001238Y+003445
X+001238Y+003730
X+002714Y+003270
X+003254Y+002984
X+003477Y+002810
X+003477Y+003461
X+003461Y+003858
X+003905Y+003858
X+004270Y+003619
X+004270Y+003238
X+004270Y+002794
X+004270Y+002286
X+004270Y+001810
T02
X+003127Y+003715
X+002873Y+003715
X+002873Y+003461
X+003127Y+003461
X+002619Y+003461
X+002619Y+003715
X+002365Y+003715
X+002365Y+003461
X+002111Y+003461
X+002111Y+003715
X+001857Y+003715
X+001603Y+003715
X+001603Y+003461
X+001857Y+003461
X+001857Y+002635
X+002111Y+002635
X+002365Y+002635
X+002365Y+002381
X+002619Y+002381
X+002619Y+002635
X+002111Y+002381
X+001857Y+002381
X+001603Y+002381
X+001603Y+002635
X+003477Y+002461
X+003477Y+002207
T00
M30
